<svg width="149" height="165" viewBox="0 0 149 165" fill="none" xmlns="http://www.w3.org/2000/svg">
<path fill-rule="evenodd" clip-rule="evenodd" d="M32.0912 70.635L0.168457 91.8733V0.0688477L32.0912 70.635ZM32.0912 70.635L0.168457 91.8733L43.0726 94.9098L32.0912 70.635ZM0.168457 91.8733L74.3473 164.045L43.0726 94.9098L0.168457 91.8733Z" fill="#FECAB9"/>
<path fill-rule="evenodd" clip-rule="evenodd" d="M74.3481 164.045L105.623 94.9098L148.527 91.8733L74.3481 164.045Z" fill="#FECAB9"/>
<path d="M148.527 91.8733L116.604 70.635L105.623 94.9098L148.527 91.8733Z" fill="#FECAB9"/>
<path d="M116.604 70.635L148.527 91.8733V0.0688477L116.604 70.635Z" fill="#FECAB9"/>
<path d="M74.3473 42.5218L0.168457 0.0688477L74.3457 164.043V42.5228L74.3473 42.5218Z" fill="#FF6106"/>
<path d="M74.3493 42.5228L74.3473 42.5218L148.527 0.0688477L74.3493 164.043V42.5228Z" fill="#FF6106"/>
</svg>
