<svg width="789" height="165" viewBox="0 0 789 165" fill="none" xmlns="http://www.w3.org/2000/svg">
<path d="M788.348 124.321H768.584V103.685H788.348V124.321Z" fill="#F8F7F5"/>
<path d="M639.664 123.158L648.819 116.764V63.2839L638.646 59.0694L666.113 47.0073V58.4881C674.833 52.8204 685.006 47.0073 691.255 47.0073C699.829 47.0073 706.95 51.8031 710.147 59.5054C719.012 53.6924 730.202 47.0073 737.033 47.0073C748.659 47.0073 757.524 55.7269 757.524 68.8063V116.764L766.534 123.158H730.493L740.23 116.764V69.6783C740.23 61.54 734.707 55.291 727.732 55.291C722.645 55.291 716.542 57.9068 710.728 61.2493C711.455 63.5746 711.746 66.0451 711.746 68.8063V116.764L721.337 123.158H684.715L694.597 116.764V69.6783C694.597 61.54 689.075 55.291 682.244 55.291C677.449 55.291 671.49 57.6162 666.113 60.668V116.764L675.85 123.158H639.664Z" fill="#F8F7F5"/>
<path d="M584.598 124.902C574.425 124.902 567.45 118.508 567.45 109.498C567.45 95.2558 593.899 85.6642 613.663 77.0899V70.1143C613.663 59.6507 607.124 52.2391 598.114 52.2391C594.771 52.2391 592.01 52.9657 589.103 54.855C580.82 60.232 586.051 79.7058 574.425 79.7058C570.066 79.7058 567.014 76.3633 567.014 71.7129C567.014 59.0694 596.806 47.0073 607.705 47.0073C621.511 47.0073 630.812 56.1629 630.812 69.5329V111.678L640.404 114.439L613.663 124.902V108.044C605.089 117.345 595.062 124.902 584.598 124.902ZM596.079 115.601C602.473 115.601 608.286 110.806 613.663 104.702V79.5605C597.678 86.2455 584.453 93.2212 584.453 104.121C584.453 110.951 589.249 115.601 596.079 115.601Z" fill="#F8F7F5"/>
<path d="M507.096 123.158L516.252 116.764V63.1386L506.079 59.0694L533.546 47.0073V61.2493C538.923 53.983 546.916 47.0073 555.49 47.0073C562.756 47.0073 567.698 51.3671 567.698 57.4708C567.698 62.8479 564.355 66.4811 559.705 66.4811C551.13 66.4811 550.404 56.3082 544.736 56.3082C540.522 56.3082 536.452 60.8134 533.546 64.8825V116.764L544.3 123.158H507.096Z" fill="#F8F7F5"/>
<path d="M460.174 164.722C441.863 164.722 428.057 156.438 428.057 145.393C428.057 137.982 436.05 132.314 445.351 129.843V128.536C438.811 126.501 434.887 121.851 434.887 115.892C434.887 109.498 440.119 103.103 448.984 96.4184C441.718 91.4773 437.213 83.6296 437.213 75.0554C437.213 59.3601 450.873 47.0073 468.167 47.0073C477.613 47.0073 480.229 50.6405 489.966 50.6405H507.26V56.7442H491.565C496.07 61.6853 498.686 67.9344 498.686 75.0554C498.686 90.1693 485.17 102.231 468.167 102.231C461.628 102.231 455.669 100.488 450.728 97.4357C447.095 100.488 444.77 104.266 444.77 107.463C444.77 111.678 448.258 114.439 453.344 114.439H489.24C500.284 114.439 507.987 119.671 507.987 128.972C507.987 147.864 480.956 164.722 460.174 164.722ZM468.167 99.9062C476.742 99.9062 481.973 90.896 481.973 75.0554C481.973 58.9241 476.742 49.3326 468.167 49.3326C459.157 49.3326 453.78 58.7788 453.78 75.0554C453.78 90.6053 459.157 99.9062 468.167 99.9062ZM470.638 155.712C488.077 155.421 500.72 147.428 500.72 137.691C500.72 132.75 497.378 129.843 489.966 129.843H455.379C446.95 129.843 442.299 134.203 442.299 140.016C442.299 149.172 454.071 156.002 470.638 155.712Z" fill="#F8F7F5"/>
<path d="M349.987 123.158L359.143 116.764V63.2839L348.97 59.0694L376.436 47.0073V60.0867C385.447 54.2737 397.073 47.0073 403.903 47.0073C415.965 47.0073 424.54 55.7269 424.54 68.8063V116.764L433.55 123.158H397.363L407.246 116.764V69.6783C407.246 61.54 401.723 55.291 394.748 55.291C389.225 55.291 382.54 58.6335 376.436 62.1213V116.764L386.173 123.158H349.987Z" fill="#F8F7F5"/>
<path d="M294.911 124.902C284.738 124.902 277.762 118.508 277.762 109.498C277.762 95.2558 304.212 85.6642 323.976 77.0899V70.1143C323.976 59.6507 317.436 52.2391 308.426 52.2391C305.084 52.2391 302.322 52.9657 299.416 54.855C291.132 60.232 296.364 79.7058 284.738 79.7058C280.378 79.7058 277.326 76.3633 277.326 71.7129C277.326 59.0694 307.118 47.0073 318.018 47.0073C331.824 47.0073 341.125 56.1629 341.125 69.5329V111.678L350.716 114.439L323.976 124.902V108.044C315.402 117.345 305.374 124.902 294.911 124.902ZM306.391 115.601C312.786 115.601 318.599 110.806 323.976 104.702V79.5605C307.99 86.2455 294.765 93.2212 294.765 104.121C294.765 110.951 299.561 115.601 306.391 115.601Z" fill="#F8F7F5"/>
<path d="M187.583 123.158L198.774 115.165V24.3363L187.583 15.6167H236.559C261.264 15.6167 279.721 28.4054 279.721 45.2633C279.721 62.9932 261.264 76.2179 236.559 76.2179H216.939V115.165L230.164 123.158H187.583ZM216.939 18.6686V73.3113H234.669C250.074 73.3113 260.828 61.6852 260.828 45.2633C260.828 29.568 250.074 18.6686 234.669 18.6686H216.939Z" fill="#F8F7F5"/>
<path fill-rule="evenodd" clip-rule="evenodd" d="M32.0912 70.635L0.168457 91.8733V0.0688477L32.0912 70.635ZM32.0912 70.635L0.168457 91.8733L43.0726 94.9098L32.0912 70.635ZM0.168457 91.8733L74.3473 164.045L43.0726 94.9098L0.168457 91.8733Z" fill="#FECAB9"/>
<path fill-rule="evenodd" clip-rule="evenodd" d="M74.3481 164.045L105.623 94.9098L148.527 91.8733L74.3481 164.045Z" fill="#FECAB9"/>
<path d="M148.527 91.8733L116.604 70.635L105.623 94.9098L148.527 91.8733Z" fill="#FECAB9"/>
<path d="M116.604 70.635L148.527 91.8733V0.0688477L116.604 70.635Z" fill="#FECAB9"/>
<path d="M74.3473 42.5218L0.168457 0.0688477L74.3457 164.043V42.5228L74.3473 42.5218Z" fill="#FF6106"/>
<path d="M74.3493 42.5228L74.3473 42.5218L148.527 0.0688477L74.3493 164.043V42.5228Z" fill="#FF6106"/>
</svg>
